Please download the media info file for info on all movies if u like. Any problems whit the sub colors can be solved by using another playback program.

General
Complete name                            : K:The Complete Superman Collection [2010]Superman The Movie.m4v
Format                                   : MPEG-4
Format profile                           : Base Media / Version 2
Codec ID                                 : mp42
File size                                : 1.63 GiB
Duration                                 : 2h 25mn
Overall bit rate mode                    : Variable
Overall bit rate                         : 1 607 Kbps
Encoded date                             : UTC 2012-04-14 21:16:43
Tagged date                              : UTC 2012-04-14 21:35:57
Writing application                      : HandBrake 0.9.6 2012022800

Video
ID                                       : 1
Format                                   : AVC
Format/Info                              : Advanced Video Codec
Format profile                           : Main@L3.0
Format settings, CABAC                   : Yes
Format settings, ReFrames                : 4 frames
Codec ID                                 : avc1
Codec ID/Info                            : Advanced Video Coding
Duration                                 : 2h 25mn
Bit rate mode                            : Variable
Bit rate                                 : 1 200 Kbps
Width                                    : 718 pixels
Height                                   : 432 pixels
Display aspect ratio                     : 2.35:1
Original display aspect ratio            : 2.35:1
Frame rate mode                          : Variable
Frame rate                               : 25.000 fps
Minimum frame rate                       : 7.813 fps
Maximum frame rate                       : 25.000 fps
Color space                              : YUV
Chroma subsampling                       : 4:2:0
Bit depth                                : 8 bits
Scan type                                : Progressive
Bits/(Pixel*Frame)                       : 0.155
Stream size                              : 1.22 GiB (75%)
Writing library                          : x264 core 120
Color primaries                          : BT.601-6 525, BT.1358 525, BT.1700 NTSC, SMPTE 170M
Transfer characteristics                 : BT.709-5, BT.1361
Matrix coefficients                      : BT.601-6 525, BT.1358 525, BT.1700 NTSC, SMPTE 170M

Audio
ID                                       : 2
Format                                   : AC-3
Format/Info                              : Audio Coding 3
Mode extension                           : CM (complete main)
Format settings, Endianness              : Big
Codec ID                                 : ac-3
Duration                                 : 2h 25mn
Bit rate mode                            : Constant
Bit rate                                 : 384 Kbps
Channel(s)                               : 6 channels
Channel positions                        : Front: L C R, Side: L R, LFE
Sampling rate                            : 48.0 KHz
Bit depth                                : 16 bits
Compression mode                         : Lossy
Delay relative to video                  : -168ms
Stream size                              : 399 MiB (24%)
Language                                 : English